<mxfile host="app.diagrams.net" modified="2023-12-07T10:29:19.489Z" agent="Mozilla/5.0 (Windows NT 10.0; Win64; x64) AppleWebKit/537.36 (KHTML, like Gecko) Chrome/119.0.0.0 Safari/537.36 Edg/119.0.0.0" version="22.1.5" etag="VBvKtLwz0oRNtJJhCc0V" type="github">
  <diagram name="第 1 页" id="0bH4pYFg5oV5JxrE2yF3">
    <mxGraphModel>
      <root>
        <mxCell id="0" />
        <mxCell id="1" parent="0" />
      </root>
    </mxGraphModel>
  </diagram>
</mxfile>
